<?xml version="1.0" encoding="UTF-8"?> <svg xmlns="http://www.w3.org/2000/svg" version="1.1" viewBox="0 0 710 176"><defs><style> .st0, .st1, .st2 { fill-rule: evenodd; } .st0, .st3 { fill: #a1c7ea; } .st4, .st2 { fill: #ffffff; } .st1 { fill: #c3d9ec; } .st5 { isolation: isolate; } .st6 { fill: #93bee5; } </style></defs><g id="Shape_2" class="st5"><g id="Shape_21" data-name="Shape_2"><path class="st6" d="M628.4,37.4l-54.1,57.5,106.7-.4-52.7-57.1ZM627,85.9h-7.4v-8.8l7.4.3v8.5ZM627,75.8h-7.4v-8.8l7.4.3v8.5ZM636.5,85.9h-7.4v-8.8l7.4.3v8.5ZM629.1,75.8v-8.8l7.4.3v8.5h-7.4ZM608.8,31.1h-9.4v16.8l9.8-9.4-.4-7.4Z"></path></g></g><g id="Shape_1" class="st5"><g id="Shape_11" data-name="Shape_1"><polygon class="st1" points="628.5 21.5 570.7 83.3 573.5 85.9 628.4 27.6 681.7 85.3 685 82.7 628.5 21.5"></polygon></g></g><g id="REALTY" class="st5"><g id="REALTY1" data-name="REALTY"><path class="st3" d="M121.4,145c.6-.8.9-1.9.9-3.3s-.2-1.9-.5-2.7c-.3-.7-.8-1.3-1.4-1.8-.6-.5-1.3-.8-2.2-1-.9-.2-1.8-.3-2.8-.3h-8v17.8h4.9v-6h2l2.9,6h5.5l-3.6-6.8c1-.4,1.8-1.1,2.3-1.9ZM116.8,143.3c-.3.3-.9.5-1.7.5h-2.9v-3.9h3c.8,0,1.3.2,1.7.5.3.4.5.8.5,1.4s-.2,1.1-.5,1.5ZM194.5,146.5h5.3v-4.1h-5.3v-2.4h8.8v-4.1h-13.6v17.8h13.8v-4.1h-8.9v-3.1ZM276.2,135.9l-6.5,17.8h5.3l1-3.1h5.3l1,3.1h5.3l-6.5-17.8h-5ZM277.1,146.6l.3-1.2c.2-.6.3-1.1.4-1.5.1-.4.2-.8.3-1.1,0-.3.2-.7.2-.9,0-.3.1-.6.2-.9,0,.3.1.6.2.9,0,.3.1.6.2.9,0,.3.2.7.3,1.1.1.4.3.9.4,1.5l.3,1.2h-3ZM359.3,135.9h-5v17.8h12.9v-4.3h-7.9v-13.5ZM430,140.2h5v13.5h4.9v-13.5h5v-4.3h-14.9v4.3ZM523,135.9l-1.4,2.7c-.5.9-.9,1.8-1.2,2.6-.4.8-.6,1.5-.8,2-.2-.5-.4-1.2-.8-2-.4-.8-.8-1.7-1.2-2.6l-1.4-2.7h-5.7l6.6,11.2v6.6h5v-6.6l6.6-11.2h-5.6Z"></path></g></g><g id="ASTOR" class="st5"><g id="ASTOR1" data-name="ASTOR"><path class="st4" d="M248,38.1l-30.5,84h25l4.6-14.8h25.2l4.6,14.8h25.2l-30.5-84h-23.6ZM252.7,88.9l1.6-5.5c.7-2.6,1.4-5,1.9-7,.6-2,1.1-3.8,1.5-5.4.4-1.6.8-3.1,1.1-4.4.3-1.4.6-2.8.8-4.2.2,1.4.5,2.8.8,4.1.3,1.3.7,2.8,1.1,4.4.4,1.6.9,3.4,1.5,5.4.6,2,1.2,4.4,1.9,7.1l1.6,5.5h-13.9ZM363.5,78.7c-2.5-2.1-5.6-3.9-9.5-5.4-3.8-1.5-8.4-2.9-13.7-4.2-2.7-.6-5-1.2-6.7-1.7-1.8-.5-3.2-1-4.2-1.6-1-.5-1.8-1.1-2.2-1.7-.4-.6-.7-1.3-.7-2.1,0-1.5.6-2.8,1.7-3.7,1.1-1,3.4-1.4,7-1.4s8.4.7,12.1,2c3.8,1.4,7.5,3.3,11.3,5.9l11.3-18.3c-4.5-3.1-9.4-5.5-14.7-7.2-5.3-1.7-11.6-2.5-18.8-2.5s-9.6.6-13.7,1.9c-4.1,1.3-7.6,3.1-10.5,5.4-2.9,2.3-5.1,5.1-6.7,8.4-1.6,3.3-2.3,6.9-2.3,10.8s.6,7.8,1.9,10.7c1.2,2.9,3.1,5.3,5.6,7.4,2.5,2,5.6,3.7,9.4,5.1,3.8,1.4,8.2,2.6,13.2,3.8,2.8.6,5.1,1.3,7,1.9,1.8.6,3.3,1.2,4.4,1.8,1.1.6,1.8,1.2,2.3,1.9.4.6.7,1.4.7,2.2,0,2-.8,3.4-2.3,4.2-1.6.8-4.4,1.2-8.6,1.2s-4-.2-6.3-.7c-2.2-.5-4.5-1.1-6.7-1.9-2.2-.8-4.3-1.7-6.4-2.7-2-1-3.8-2-5.3-3.1l-11.3,18.3c4.4,2.9,9.7,5.3,15.9,7.3,6.2,2,12.7,2.9,19.5,2.9s9.7-.5,13.9-1.6c4.2-1,7.9-2.6,11-4.8,3.1-2.2,5.5-5,7.2-8.4,1.7-3.4,2.6-7.6,2.6-12.4s-.6-7.3-1.8-10.2c-1.2-2.9-3-5.4-5.5-7.4ZM442.2,38.1h-70.4v20.3h23.6v63.8h23.3v-63.8h23.6v-20.3ZM508,47.9c-3.4-3.6-7.5-6.4-12.3-8.3-4.8-1.9-10-2.8-15.7-2.8s-10.9,1-15.7,2.9c-4.8,1.9-8.9,4.7-12.4,8.4-3.4,3.7-6.1,8.2-8.1,13.6s-2.9,11.6-2.9,18.6.9,13.1,2.8,18.6c1.9,5.4,4.5,9.9,8,13.6,3.4,3.6,7.6,6.4,12.3,8.3,4.8,1.9,10,2.8,15.7,2.8s10.9-1,15.7-2.9c4.8-1.9,8.9-4.7,12.4-8.4,3.4-3.7,6.1-8.2,8.1-13.6,1.9-5.4,2.9-11.6,2.9-18.6s-1-13.1-2.9-18.6c-1.9-5.4-4.6-9.9-8-13.6ZM490.9,97.4c-2.5,3.8-6.2,5.8-10.9,5.8s-8.4-2-11-5.9c-2.6-3.9-3.9-9.7-3.9-17.3s1.3-13.3,3.8-17.2c2.5-3.8,6.1-5.8,10.9-5.8s8.4,2,11,5.9c2.6,3.9,3.9,9.7,3.9,17.3s-1.3,13.3-3.8,17.2ZM580.5,90.1c4.6-2.1,8.3-5.1,11.1-9.1,2.7-4,4.1-9.2,4.1-15.5s-.8-9.2-2.3-12.7-3.8-6.3-6.7-8.5-6.4-3.7-10.4-4.7c-4-1-8.5-1.5-13.4-1.5h-37.6v84h23v-28.3h9.4l13.7,28.3h26.1l-16.8-32.1ZM570.1,73.1c-1.6,1.6-4.3,2.4-8.2,2.4h-13.7v-18.4h14.1c3.7,0,6.3.8,7.9,2.5s2.3,3.8,2.3,6.5-.8,5.4-2.4,7Z"></path></g></g><g id="P" class="st5"><g id="P1" data-name="P"><path class="st2" d="M231.3,48.8c-1.6-3.6-3.8-6.4-6.7-8.6-2.9-2.2-6.4-3.8-10.4-4.8-4-1-8.5-1.5-13.4-1.5h-36.2v84h23v-27.3h11.7c5,0,9.7-.5,13.9-1.5,4.2-1,7.8-2.6,10.9-4.9,3-2.3,5.4-5.3,7.1-8.9,1.7-3.7,2.5-8.2,2.5-13.6s-.8-9.3-2.3-12.9ZM208.1,69.2c-1.6,1.6-4.3,2.4-8.2,2.4h-12.3v-18.9h12.6c3.8,0,6.4.8,7.9,2.5,1.5,1.7,2.3,3.9,2.3,6.7s-.8,5.6-2.4,7.2Z"></path></g></g><g id="J" class="st5"><g id="J1" data-name="J"><path class="st0" d="M156,33.8v51.6c0,4.1-.9,7.3-2.8,9.7-1.8,2.4-4.6,3.5-8.4,3.5s-7-1.2-9-3.7c-2-2.4-3.7-6.1-5.2-10.9l-22.8,6c1,4.4,2.5,8.4,4.4,12,1.9,3.6,4.3,6.7,7.2,9.2,2.9,2.5,6.4,4.5,10.5,5.8,4.1,1.4,8.9,2,14.5,2s11.1-.8,15.6-2.5c4.4-1.6,8.1-4,11.1-7.1,2.9-3.1,5.1-6.8,6.6-11.2,1.4-4.4,2.2-9.3,2.2-14.8v-49.8h-23.8Z"></path></g></g><g id="M" class="st5"><g id="M1" data-name="M"><path class="st0" d="M87.8,33.8l-10.4,22.5c-2.6,5.8-4.9,10.8-6.7,15.2-1.8,4.4-3.1,7.7-3.9,10.1-.3-1.2-.8-2.7-1.5-4.4-.7-1.8-1.5-3.7-2.4-5.9-.9-2.2-1.9-4.6-3.1-7.1-1.1-2.5-2.3-5.1-3.6-7.9l-10.4-22.5h-21.4v84h22v-20.1c0-4.2,0-8.1-.1-11.8,0-3.7-.2-7.2-.4-10.5.6,1.6,1.4,3.4,2.2,5.3.8,1.9,1.6,3.9,2.5,5.8.9,2,1.8,3.9,2.6,5.8.9,1.9,1.7,3.6,2.4,5.1l11,23.3,11-23.3c.7-1.5,1.5-3.2,2.4-5.1.9-1.9,1.8-3.8,2.6-5.8.9-2,1.7-3.9,2.5-5.8.8-1.9,1.5-3.7,2.2-5.3-.2,3.3-.3,6.8-.4,10.5,0,3.7-.1,7.7-.1,11.8v20.1h22V33.8h-21.2Z"></path></g></g></svg> 